<?xml version="1.0" encoding="UTF-8"?>
<svg xmlns="http://www.w3.org/2000/svg" width="256" height="72" viewBox="0 0 256 72" fill="none">
  <path d="M80.4648 47.1934C80.9784 55.1815 87.3716 60.0028 96.729 60.0028C106.942 60.0028 113.849 54.5824 113.849 46.4231C113.849 40.86 110.677 37.4365 103.687 35.2398L99.465 33.9275C95.5851 32.7007 93.9304 31.0175 93.9304 28.7352C93.9304 25.8253 96.9765 23.7142 100.999 23.7142C105.25 23.7142 108.395 26.025 108.908 29.477H117.039C116.782 21.9739 110.42 16.7246 101.376 16.7246C92.0761 16.7246 85.1721 22.2307 85.1721 29.7623C85.1721 35.0686 88.6526 39.1197 94.7293 41.0026L98.999 42.3435C103.45 43.7414 105.171 45.2249 105.171 47.6213C105.171 50.8451 101.971 53.0133 97.349 53.0133C92.8985 53.0133 89.3944 50.731 88.7953 47.1934H80.4648Z" fill="#122235"></path>
  <path d="M121.495 28.4801L112.773 69.6137H121.082L124.264 54.881H124.441C124.755 55.7061 125.207 56.4329 125.797 57.0615C126.425 57.6508 127.113 58.1419 127.859 58.5347C128.645 58.9276 129.47 59.2223 130.334 59.4187C131.238 59.6151 132.122 59.7134 132.986 59.7134C135.815 59.7134 138.251 59.1437 140.293 58.0044C142.376 56.865 144.104 55.3525 145.479 53.4667C146.854 51.5809 147.876 49.4398 148.544 47.0433C149.212 44.6467 149.546 42.1913 149.546 39.6769C149.546 35.9839 148.544 33.057 146.54 30.8962C144.536 28.7355 141.688 27.6551 137.995 27.6551C136.109 27.6551 134.341 28.0283 132.691 28.7747C131.081 29.5212 129.804 30.7195 128.861 32.3695L128.743 32.2517L129.568 28.4801H121.495ZM135.225 33.9606C136.208 33.9606 137.072 34.1571 137.818 34.5499C138.565 34.9035 139.174 35.3946 139.645 36.0232C140.156 36.6125 140.529 37.3197 140.765 38.1447C141.04 38.9698 141.177 39.8341 141.177 40.7377C141.177 42.0734 141.001 43.4878 140.647 44.9807C140.293 46.4736 139.743 47.8486 138.997 49.1058C138.251 50.363 137.308 51.4041 136.168 52.2292C135.029 53.0542 133.654 53.4667 132.043 53.4667C130 53.4667 128.488 52.8774 127.506 51.6988C126.523 50.4809 126.032 48.8701 126.032 46.8665C126.032 45.57 126.209 44.1753 126.563 42.6824C126.955 41.1502 127.525 39.7359 128.272 38.4394C129.057 37.1429 130.02 36.0821 131.159 35.2571C132.299 34.3928 133.654 33.9606 135.225 33.9606Z" fill="#122235"></path>
  <path d="M160.045 46.6307C160.045 45.3343 160.222 43.9592 160.576 42.5056C160.929 41.0127 161.46 39.6376 162.167 38.3804C162.874 37.1233 163.778 36.0821 164.878 35.2571C166.017 34.3928 167.353 33.9606 168.885 33.9606C171.124 33.9606 172.696 34.5696 173.599 35.7875C174.542 37.0054 175.014 38.6358 175.014 40.6787C175.014 41.9752 174.837 43.3699 174.483 44.8628C174.13 46.3557 173.58 47.7504 172.833 49.0469C172.126 50.3041 171.203 51.3648 170.064 52.2292C168.963 53.0542 167.628 53.4667 166.056 53.4667C165.074 53.4667 164.21 53.2899 163.463 52.9363C162.717 52.5435 162.088 52.0327 161.578 51.4041C161.067 50.7755 160.674 50.0487 160.399 49.2237C160.163 48.3987 160.045 47.5343 160.045 46.6307ZM151.677 46.6307C151.677 50.9916 152.934 54.2721 155.449 56.4722C158.002 58.633 161.401 59.7134 165.644 59.7134C168.433 59.7134 170.908 59.2223 173.069 58.2401C175.269 57.2579 177.135 55.9025 178.667 54.1739C180.2 52.4452 181.359 50.422 182.144 48.104C182.969 45.7468 183.382 43.2324 183.382 40.5609C183.382 38.3608 183.028 36.4554 182.321 34.8446C181.653 33.2338 180.691 31.8981 179.434 30.8373C178.176 29.7766 176.664 28.9908 174.896 28.4801C173.167 27.9301 171.262 27.6551 169.18 27.6551C166.469 27.6551 164.033 28.1658 161.872 29.1873C159.711 30.1694 157.865 31.5248 156.333 33.2535C154.84 34.9821 153.681 37.0054 152.856 39.3233C152.07 41.602 151.677 44.0378 151.677 46.6307Z" fill="#122235"></path>
  <path d="M190.011 28.4801L183.705 58.9473H192.014L195.432 42.7413C195.668 41.6806 196.002 40.6395 196.434 39.618C196.906 38.5965 197.475 37.6929 198.143 36.9072C198.85 36.1214 199.675 35.4928 200.618 35.0214C201.6 34.5107 202.72 34.2553 203.977 34.2553C204.959 34.2553 205.863 34.5499 206.688 35.1393C207.552 35.7286 207.985 36.475 207.985 37.3786C207.985 37.8108 207.906 38.4197 207.749 39.2055C207.631 39.9912 207.533 40.6198 207.454 41.0913L203.742 58.9473H212.11L215.881 41.0913C215.921 40.8162 215.979 40.4627 216.058 40.0305C216.176 39.5591 216.274 39.068 216.353 38.5572C216.471 38.0465 216.569 37.5554 216.647 37.084C216.726 36.5732 216.765 36.1607 216.765 35.8464C216.765 30.3855 213.799 27.6551 207.867 27.6551C203.467 27.6551 199.911 29.3444 197.2 32.7231H197.082L198.025 28.4801H190.011Z" fill="#122235"></path>
  <path d="M236.207 33.9567C238.25 33.9567 239.763 34.5657 240.745 35.7836C241.727 36.9622 242.218 38.5533 242.218 40.557C242.218 41.8535 242.022 43.2678 241.629 44.8C241.275 46.2929 240.705 47.6876 239.92 48.9841C239.173 50.2805 238.23 51.3609 237.091 52.2253C235.952 53.0503 234.596 53.4628 233.025 53.4628C232.043 53.4628 231.178 53.286 230.432 52.9324C229.685 52.5396 229.057 52.0485 228.546 51.4592C228.075 50.8306 227.701 50.1038 227.426 49.2787C227.191 48.4537 227.073 47.5894 227.073 46.6858C227.073 45.35 227.25 43.9357 227.603 42.4428C227.957 40.9498 228.507 39.5748 229.253 38.3176C230 37.0604 230.943 36.0193 232.082 35.1943C233.26 34.3693 234.636 33.9567 236.207 33.9567ZM239.566 55.1718L238.741 58.9434H246.815L255.713 16.8668H247.345L243.986 32.5424H243.868C243.2 30.8531 242.041 29.6155 240.391 28.8298C238.78 28.044 237.091 27.6512 235.323 27.6512C232.494 27.6512 230.039 28.2405 227.957 29.4191C225.875 30.5584 224.146 32.071 222.771 33.9567C221.396 35.8425 220.374 37.9837 219.706 40.3802C219.039 42.7767 218.705 45.2321 218.705 47.7465C218.705 51.4395 219.706 54.3664 221.71 56.5272C223.753 58.6487 226.621 59.7095 230.314 59.7095C232.2 59.7095 233.948 59.3559 235.559 58.6487C237.209 57.9022 238.505 56.704 239.448 55.0539L239.566 55.1718Z" fill="#122235"></path>
  <path fill-rule="evenodd" clip-rule="evenodd" d="M1.40625 36.0003C1.40625 55.105 16.8956 70.5938 35.9998 70.5938C55.1044 70.5938 70.5938 55.1043 70.5938 35.9993C70.5938 16.8944 55.1044 1.40625 35.9998 1.40625C16.8956 1.40625 1.40625 16.895 1.40625 36.0003ZM31.9558 7.98289C30.7248 10.5492 30.5463 13.4911 31.4662 16.1901C33.225 21.3498 38.2014 24.181 43.1957 25.4539C50.787 27.3892 56.7886 29.4534 60.1817 32.6663C63.1701 35.4952 64.3175 39.6303 62.4956 45.9762C62.0069 47.6796 61.0945 49.2184 60.1844 50.7123C59.8253 48.6792 58.9604 46.6453 57.5195 44.678C48.0965 31.8146 27.4296 34.3843 19.5413 23.6121C17.2277 20.4538 17.389 17.1667 19.8095 14.133C22.6293 10.6005 27.5602 8.60887 31.9558 7.98289ZM44.7436 19.3601C40.3381 18.2374 38.1119 16.2249 37.4141 14.1752C36.3423 11.0254 38.8793 7.62114 42.3142 8.40268C51.773 10.5563 59.4983 17.4751 62.7105 26.6144C58.3459 23.3532 52.1746 21.2546 44.7436 19.3601ZM40.5335 55.8096C38.775 50.6499 33.799 47.819 28.804 46.5461C21.213 44.6105 15.2114 42.5463 11.818 39.3334C8.8302 36.5042 7.68252 32.3693 9.50443 26.0235C9.99306 24.3204 10.9055 22.7813 11.816 21.2873C12.1747 23.3202 13.0399 25.3547 14.4808 27.3217C23.9032 40.1848 44.5708 37.6154 52.4584 48.3876C54.772 51.5458 54.611 54.8326 52.1905 57.8667C49.3704 61.3991 44.4402 63.3908 40.0445 64.0164C41.2756 61.4501 41.4541 58.5085 40.5335 55.8096ZM29.6858 63.597C20.2266 61.4433 12.502 54.5245 9.28981 45.3853C13.6541 48.6464 19.8254 50.7447 27.2568 52.6395C31.6622 53.7622 33.8881 55.7748 34.5862 57.8248C35.552 60.6638 33.5854 63.7104 30.6725 63.7104C30.3539 63.7104 30.0242 63.6739 29.6858 63.597Z" fill="url(#paint0_linear)"></path>
  <defs>
    <linearGradient id="paint0_linear" x1="60.0991" y1="50.6742" x2="11.3606" y2="21.0243" gradientUnits="userSpaceOnUse">
      <stop stop-color="#EC326A"></stop>
      <stop offset="1" stop-color="#EF543C"></stop>
    </linearGradient>
  </defs>
</svg>
